<svg xmlns="http://www.w3.org/2000/svg">
    <!-- ==== First icon ==== -->
    <symbol id="first-i" viewBox="0 0 50 50">
        <g>
            <path class="st0" d="M48.2,10c-1.1-1.1-2.7-1.8-4.3-1.8c-1.6,0-3.1,0.6-4.3,1.8L36,13.6V1.7c0-0.7-0.6-1.3-1.3-1.3H12.1
		c-0.4,0-0.7,0.1-1,0.4L0.4,11.5c-0.3,0.3-0.4,0.6-0.4,1v36.2C0,49.4,0.6,50,1.4,50h33.3c0.7,0,1.3-0.6,1.3-1.3V30.7l12.2-12.2
		c1.1-1.1,1.8-2.7,1.8-4.3C50,12.7,49.4,11.1,48.2,10 M23.3,38.3l-4.5,1.2l1.2-4.5L23.3,38.3z M25.9,37.1l-4.8-4.8l17.1-17.1L43,20
		L25.9,37.1z M10.8,5v6.2H4.6L10.8,5z M33.3,47.3H2.7V13.8h9.4c0.7,0,1.3-0.6,1.3-1.3V3.1h19.9v13.2L18.3,31.4c0,0,0,0,0,0
		c-0.2,0.2-0.3,0.4-0.4,0.6l-2.4,9c-0.1,0.5,0,1,0.4,1.3c0.3,0.3,0.6,0.4,1,0.4c0.1,0,0.2,0,0.3,0l9-2.4c0.2-0.1,0.5-0.2,0.6-0.4
		c0,0,0,0,0,0l6.5-6.5V47.3z M46.3,16.7l-1.4,1.4l-4.8-4.8l1.4-1.4c0.6-0.6,1.5-1,2.4-1c0.9,0,1.7,0.3,2.4,1c0.6,0.6,1,1.5,1,2.4
		C47.3,15.2,47,16,46.3,16.7"/>
            <path class="st0" d="M11.4,40.1H7.5c-0.7,0-1.3,0.6-1.3,1.3c0,0.7,0.6,1.3,1.3,1.3h3.9c0.7,0,1.3-0.6,1.3-1.3
		C12.8,40.7,12.2,40.1,11.4,40.1"/>
            <path class="st0" d="M12.1,34.7H7.5c-0.7,0-1.3,0.6-1.3,1.3c0,0.7,0.6,1.3,1.3,1.3h4.6c0.7,0,1.3-0.6,1.3-1.3
		C13.5,35.3,12.9,34.7,12.1,34.7"/>
            <path class="st0" d="M13.5,29.3H7.5c-0.7,0-1.3,0.6-1.3,1.3c0,0.7,0.6,1.3,1.3,1.3h5.9c0.7,0,1.3-0.6,1.3-1.3
		C14.8,29.9,14.2,29.3,13.5,29.3"/>
            <path class="st0" d="M7.5,26.6h9.8c0.7,0,1.3-0.6,1.3-1.3c0-0.7-0.6-1.3-1.3-1.3H7.5c-0.7,0-1.3,0.6-1.3,1.3
		C6.2,26,6.8,26.6,7.5,26.6"/>
            <path class="st0" d="M7.5,21.2h15.3c0.7,0,1.3-0.6,1.3-1.3c0-0.7-0.6-1.3-1.3-1.3H7.5c-0.7,0-1.3,0.6-1.3,1.3
		C6.2,20.6,6.8,21.2,7.5,21.2"/>
            <path class="st0" d="M17.5,15.9h11.6c0.7,0,1.3-0.6,1.3-1.3c0-0.7-0.6-1.3-1.3-1.3H17.5c-0.7,0-1.3,0.6-1.3,1.3
		C16.1,15.2,16.7,15.9,17.5,15.9"/>
            <path class="st0" d="M17.5,10.5h11.6c0.7,0,1.3-0.6,1.3-1.3c0-0.7-0.6-1.3-1.3-1.3H17.5c-0.7,0-1.3,0.6-1.3,1.3
		C16.1,9.9,16.7,10.5,17.5,10.5"/>
        </g>
    </symbol>
    <!-- ==== Second icon ==== -->
    <symbol id="second-i" viewBox="0 0 50 50">
        <g>
            <path class="st0" d="M43.4,28.5l-9.7-8.6c-0.5-0.5-1.3-0.4-1.8,0.1c-0.5,0.5-0.4,1.3,0.1,1.8l8.6,7.7L32,37.1
		c-0.5,0.5-0.6,1.3-0.1,1.8c0.3,0.3,0.6,0.4,1,0.4c0.3,0,0.6-0.1,0.9-0.3l9.7-8.6c0.3-0.2,0.4-0.6,0.4-1
		C43.8,29.1,43.6,28.7,43.4,28.5"/>
            <path class="st0" d="M18.1,19.9c-0.5-0.5-1.3-0.6-1.8-0.1l-9.7,8.6c-0.3,0.2-0.4,0.6-0.4,1c0,0.4,0.2,0.7,0.4,1l9.7,8.6
		c0.2,0.2,0.5,0.3,0.9,0.3c0.4,0,0.7-0.1,1-0.4c0.5-0.5,0.4-1.3-0.1-1.8l-8.6-7.7l8.6-7.7C18.6,21.3,18.6,20.5,18.1,19.9"/>
            <path class="st0" d="M28.1,19.2c-0.7-0.2-1.4,0.2-1.6,0.9l-5.4,17.8c-0.2,0.7,0.2,1.4,0.9,1.6c0.1,0,0.2,0.1,0.4,0.1
		c0.6,0,1.1-0.4,1.2-0.9l5.4-17.8C29.1,20.1,28.7,19.4,28.1,19.2"/>
            <path class="st0" d="M48.7,0H1.3C0.6,0,0,0.6,0,1.3v47.4C0,49.4,0.6,50,1.3,50h47.4c0.7,0,1.3-0.6,1.3-1.3V1.3
		C50,0.6,49.4,0,48.7,0 M47.4,7.7h-5.1V2.6h5.1V7.7z M10.3,2.6h29.5v5.1H10.3V2.6z M2.6,2.6h5.1v5.1H2.6V2.6z M2.6,10.3h44.9v37.2
		H2.6V10.3z"/>
        </g>
    </symbol>
    <!-- ==== Step 1 ==== -->
    <symbol id="step_1" viewBox="0 0 74 74">
        <g style="fill:#2CD3B8;">
            <circle class="st0" cx="37" cy="37" r="37"/>
        </g>
        <g style="fill:#FFFFFF;">
            <path class="st1" d="M41.8,37.5c3.5,0,6.4-2.8,6.4-6.3c0-3.4-2.9-6.2-6.4-6.2s-6.4,2.8-6.4,6.2C35.4,34.7,38.3,37.5,41.8,37.5z
		 M27.5,34.4v-4.7h-3.2v4.7h-4.8v3.1h4.8v4.7h3.2v-4.7h4.8v-3.1H27.5z M41.8,40.6c-4.3,0-12.7,2-12.7,6.2V50h25.5v-3.1
		C54.5,42.7,46.1,40.6,41.8,40.6z"/>
        </g>
    </symbol>
    <!-- ==== Step 2 ==== -->
    <symbol id="step_2" viewBox="0 0 74 74">
        <g style="fill:#2CD3B8;">
            <circle class="st0" cx="37" cy="37" r="37"/>
        </g>
        <g style="fill:#FFFFFF;">
            <path class="st1" d="M47.1,25.5L32.6,39.8l-5.6-5.5l-4.4,4.4l10.1,9.9l18.9-18.6L47.1,25.5z"/>
        </g>
    </symbol>
    <!-- ==== Step 3 ==== -->
    <symbol id="step_3" viewBox="0 0 74 74">
        <g style="fill:#2CD3B8;">
            <circle class="st0" cx="37" cy="37" r="37"/>
        </g>
        <g style="fill:#FFFFFF;">
            <path class="st1" d="M54.9,35c-0.1-0.5-0.6-0.9-1.2-0.9c-1.6,0-3.1-1-3.7-2.5c-0.6-1.5-0.2-3.3,1-4.5c0.4-0.4,0.4-0.9,0.1-1.4
		c-0.8-1.1-1.8-2-2.9-2.9c-0.4-0.3-1-0.3-1.4,0.1c-1.1,1.2-3,1.6-4.5,1c-1.5-0.7-2.5-2.2-2.4-3.9c0-0.5-0.4-1-0.9-1.1
		c-1.3-0.2-2.7-0.2-4,0c-0.5,0.1-0.9,0.5-0.9,1c0.1,1.7-0.9,3.2-2.5,3.8c-1.5,0.6-3.4,0.2-4.5-1c-0.4-0.4-0.9-0.4-1.4-0.1
		c-1.1,0.8-2.1,1.8-2.9,2.9c-0.3,0.4-0.3,1,0.1,1.4c1.3,1.1,1.7,2.9,1,4.5c-0.6,1.5-2.2,2.4-3.9,2.4c-0.6,0-1,0.4-1,0.9
		c-0.2,1.4-0.2,2.7,0,4.1c0.1,0.5,0.7,0.9,1.2,0.9c1.6,0,3.1,0.9,3.7,2.5c0.6,1.5,0.2,3.3-1,4.5c-0.4,0.4-0.4,0.9-0.1,1.4
		c0.8,1.1,1.8,2,2.8,2.9c0.4,0.3,1,0.3,1.4-0.1c1.1-1.2,3-1.6,4.5-1c1.6,0.6,2.5,2.2,2.4,3.9c0,0.5,0.4,1,0.9,1.1
		C35.6,55,36.3,55,37,55c0.7,0,1.3,0,2-0.1c0.5-0.1,0.9-0.5,0.9-1c-0.1-1.7,0.9-3.2,2.5-3.8c1.5-0.6,3.4-0.2,4.5,1
		c0.4,0.4,0.9,0.4,1.4,0.1c1.1-0.8,2.1-1.8,2.9-2.9c0.3-0.4,0.3-1-0.1-1.4c-1.3-1.1-1.7-2.9-1-4.5C50.5,41,52,40,53.6,40l0.2,0
		c0.5,0,1-0.4,1.1-0.9C55,37.7,55,36.4,54.9,35z M37,47.4c-5.7,0-10.4-4.6-10.4-10.4S31.3,26.6,37,26.6S47.4,31.3,47.4,37
		c0,1.9-0.5,3.8-1.5,5.3l-4.5-4.5c0.3-0.8,0.5-1.6,0.5-2.5c0-1.7-0.7-3.3-1.9-4.5c-1.2-1.2-2.8-1.9-4.5-1.9c-0.6,0-1.1,0.1-1.7,0.2
		c-0.2,0.1-0.4,0.3-0.5,0.5c-0.1,0.2,0,0.5,0.2,0.7c0,0,2.2,2.3,3,3c0.1,0.1,0.1,0.3,0.1,0.3l0,0c-0.1,0.8-0.2,1.8-0.3,2.2
		c0,0,0,0,0,0c0,0,0,0,0,0.1c-0.4,0.1-1.4,0.3-2.2,0.3l0,0l0,0c0,0,0,0,0,0c-0.1,0-0.2,0-0.3-0.1c-0.8-0.8-2.9-2.9-2.9-2.9
		c-0.2-0.2-0.4-0.2-0.5-0.2c-0.3,0-0.6,0.2-0.7,0.5c-0.6,2.2,0,4.6,1.6,6.2c1.2,1.2,2.8,1.9,4.5,1.9c0.9,0,1.7-0.2,2.5-0.5l4.6,4.6
		C41,46.8,39.1,47.4,37,47.4z"/>
        </g>
    </symbol>
    <!-- ==== Step 4 ==== -->
    <symbol id="step_4" viewBox="0 0 74 74">
        <g style="fill:#2CD3B8;">
            <circle class="st0" cx="37" cy="37" r="37"/>
        </g>
        <g style="fill:#FFFFFF;">
            <path class="st1" d="M57,26.3l-0.3,2.5c-0.1,0.8-0.2,1.6-0.4,2.4l-0.1,0.5c-0.4,2.3-0.7,4.2-1.1,5.9c-0.4,1.9-0.9,4-1.5,6.1
		c-0.4,1.2-0.7,2.2-1.1,3.1c-0.2,0.6-0.5,1.1-0.7,1.6c-0.3,0.5-0.6,1-1.1,1.6c-0.2,0.3-0.5,0.5-0.8,0.7c-0.2,0.2-0.6,0.3-1.1,0.4
		c-0.4,0.1-0.8,0-1.1-0.1c-0.3-0.1-0.6-0.3-0.9-0.5c-0.6-0.5-1-1-1.3-1.4c-0.4-0.5-0.7-1.1-0.9-1.5c-0.6-1.1-1-2.2-1.4-3
		c-0.4-1-0.8-2.1-1.2-3c-0.2-0.6-0.4-1.2-0.6-1.8c-0.5-1.4-1-2.8-1.5-4.1c-0.4-1.1-0.8-1.9-1.2-2.6c0-0.1-0.1-0.2-0.2-0.3
		c0,0,0-0.1-0.1-0.1c0,0,0-0.1-0.1-0.1c-0.9-1.3-2-1.2-2.8,0.9c-0.2,0.4-0.3,0.8-0.5,1.3L34.5,36c-0.4,1.1-0.7,2.1-1.1,3
		c-0.5,1.2-0.9,2-1.4,2.8c-0.5,0.7-1.1,1.7-2,2.4c-0.5,0.4-0.9,0.6-1.4,0.8c-0.5,0.2-1,0.2-1.6,0.1c-0.5-0.1-0.9-0.3-1.4-0.5
		c-0.4-0.2-0.8-0.5-1.1-0.9c-0.6-0.6-1.2-1.3-1.7-2.2c-0.5-0.7-0.9-1.5-1.3-2.3c-0.8-1.7-1.5-3.4-1.9-4.6c-1.1-3.1-1.9-5.9-2.4-8
		c0-0.1,0-0.2-0.1-0.2c0-0.1,0-0.2,0.1-0.3c0.1-0.1,0.2-0.1,0.3-0.1c0,0,0.1,0,0.1,0c0.1,0,0.2,0.1,0.2,0.3c0.8,2.1,1.6,4.5,3,7.4
		c0.7,1.5,1.4,2.9,2.2,4.2c0.4,0.7,0.9,1.4,1.3,2c0.6,0.7,1,1.2,1.5,1.6c0.6,0.5,1.1,0.7,1.6,0.8c0.5,0,0.9-0.2,1.4-0.6
		c0.5-0.5,1-1.2,1.3-1.8c0.4-0.7,0.7-1.5,1.1-2.4c0.3-0.8,0.6-1.7,0.9-2.7l0.5-1.5c0.2-0.5,0.4-1,0.6-1.5c0.2-0.6,0.5-1.1,0.7-1.6
		c0,0,0,0,0,0c0,0,0,0,0,0c0,0,0,0,0,0l0,0c0.2-0.5,0.6-1,1-1.5c0.2-0.3,0.5-0.5,0.8-0.7c0.3-0.3,0.7-0.4,1.1-0.5
		c0.4-0.1,0.8-0.1,1.2,0c0.3,0.1,0.7,0.3,1,0.5c0.6,0.5,1,1,1.3,1.4c0.3,0.4,0.6,0.9,0.9,1.5c0.6,1.1,1,2.1,1.4,3
		c0.1,0.1,0.1,0.3,0.2,0.4c0.6,1.4,1.1,2.8,1.6,4.2l0.5,1.3c0.7,1.8,1.4,3.8,2.3,5.5c0.2,0.5,0.5,0.8,0.6,1.1c1.1,1.7,1.8,0.2,2-0.2
		c0.2-0.3,0.4-0.7,0.6-1.2c0.3-0.8,0.7-1.6,1-2.7c0.6-1.7,1.1-3.7,1.6-5.7c0.5-1.9,0.9-3.8,1.3-5.7l0.1-0.4c0.2-0.8,0.4-1.6,0.5-2.4
		l0.5-2.3l0-0.2c0.1-0.4,0.5-0.7,0.9-0.7c0.5,0,0.9,0.4,0.9,0.9c0,0,0,0,0,0L57,26.3z"/>
        </g>
    </symbol>
    <!-- ==== Step 5 ==== -->
    <symbol id="step_5" viewBox="0 0 74 74">
        <g style="fill:#2CD3B8;">
            <circle class="st0" cx="37" cy="37" r="37"/>
        </g>
        <g style="fill:#FFFFFF;">
            <g>
                <g>
                    <path class="st1" d="M51.5,34l-0.6,0v9.4h0.6c0.9,0,1.6-0.7,1.6-1.6v-6.3C53,34.7,52.3,34,51.5,34z M21,35.6v6.1
				c0,0.9,0.7,1.7,1.6,1.7h0.6V34l-0.6,0C21.7,34,21,34.7,21,35.6z M49.4,35.3c0-0.7-0.1-1.4-0.2-2.1c0-0.2-0.1-0.5-0.2-0.7v-1.8
				c0-6.8-5.4-12.3-12-12.3S25,24,25,30.8v1.2c-0.1,0.2-0.1,0.3-0.2,0.5c-0.2,0.9-0.4,1.9-0.4,2.8v11.6c0,0.5,0.4,0.8,0.8,0.8h2.5
				c0.8,4.4,4.7,7.8,9.3,7.8c3.6,0,6.8-2.1,8.4-5.2c2.7-0.2,4.9-2.5,4.9-5.3h-0.9V35.3z M43.9,47.9h-5.9c-0.7,0-1.2,0.6-1.2,1.2
				c0,0.7,0.5,1.2,1.2,1.2h4.6C41.3,52,39.3,53,37.1,53c-3.9,0-7-3.2-7-7.2V38c0.9-0.6,2.5-1.7,3.6-3.2c1.7,1.4,5.1,3.5,10.5,3.7
				v7.3h0C44.1,46.5,44,47.2,43.9,47.9z M38.8,24.4h-3.6c-2.7,0-5.2,1-7,2.7C29.5,23.5,33,21,37,21c4.1,0,7.7,2.7,9,6.4
				C44.2,25.6,41.6,24.4,38.8,24.4z M34.6,40.3h-1.9c-0.7,0-1.2,0.6-1.2,1.2c0,0.7,0.5,1.2,1.2,1.2h1.9c0.7,0,1.2-0.6,1.2-1.2
				C35.8,40.9,35.2,40.3,34.6,40.3z M41.4,40.3h-1.9c-0.7,0-1.2,0.6-1.2,1.2c0,0.7,0.5,1.2,1.2,1.2h1.9c0.7,0,1.2-0.6,1.2-1.2
				C42.6,40.9,42,40.3,41.4,40.3z"/>
                </g>
            </g>
        </g>
    </symbol>
    <!-- ==== Step 6 ==== -->
    <symbol id="step_6" viewBox="0 0 74 74">
        <g style="fill:#2CD3B8;">
            <circle class="st0" cx="37" cy="37" r="37"/>
        </g>
        <g style="fill:#FFFFFF;">
            <g>
                <g>
                    <path class="st1" d="M41.6,49h-3.4v-3h-2.4v3h-3.4c-0.7,0-1.2,0.6-1.2,1.2c0,0.7,0.5,1.2,1.2,1.2h9.2c0.7,0,1.2-0.6,1.2-1.2
				C42.8,49.6,42.3,49,41.6,49z M21,42v1.5c0,0.5,0.4,1,1,1H52c0.5,0,1-0.4,1-1V42H21z M37,26.7c2.6,0,5,0.7,7.1,2l0.8-1.1
				c0.3-0.4,0.8-0.4,1.1-0.2c0.4,0.3,0.4,0.8,0.2,1.1l-0.8,1.1c3.2,2.5,5.2,6.3,5.3,10.7H53V23.5c0-0.5-0.4-1-1-1H22
				c-0.5,0-1,0.4-1,1v16.9h2.3C23.4,32.8,29.5,26.7,37,26.7z M44,39.8c-0.1-0.1-0.1-0.2-0.1-0.3c-0.3-1.8-1.2-3.3-2.5-4.3L39,38.5
				c0.4,0.3,0.7,0.8,0.9,1.3H44z M37,37.8c0.2,0,0.3,0,0.5,0l2.6-3.5c-0.9-0.5-2-0.7-3.1-0.7c-2,0-3.8,0.8-5.1,2.2c0,0,0,0,0,0
				c0,0.1-0.1,0.1-0.1,0.2c-0.8,1-1.4,2.2-1.6,3.5c0,0.1-0.1,0.2-0.1,0.3h4.1C34.5,38.6,35.7,37.8,37,37.8z M49.1,39.8
				c-0.2-3.6-2-6.7-4.6-8.8l-2.1,2.9c0.1,0.1,0.1,0.1,0.2,0.2c1.5,1.3,2.6,3.2,2.9,5.2c0,0.2,0,0.4-0.1,0.6H49.1z M27.2,33.4
				C27.2,33.4,27.2,33.4,27.2,33.4c-1.3,1.8-2.2,4-2.3,6.4h3.7c-0.1-0.2-0.2-0.4-0.1-0.6c0.2-1.3,0.8-2.6,1.6-3.7L27.2,33.4z
				 M31.4,34c1.4-1.2,3-1.9,4.8-2v-3.6c-3.1,0.2-5.9,1.6-7.9,3.7l2.9,2.1C31.2,34.2,31.3,34.1,31.4,34z M43.1,30.1
				c-1.6-0.9-3.4-1.5-5.3-1.6V32c1.1,0.1,2.2,0.4,3.2,1L43.1,30.1z"/>
                </g>
            </g>
        </g>
    </symbol>
    <!-- ==== Social network icon  ==== -->
    <symbol id="sn-icon" viewBox="0 0 40 40">
        <path class="st0" d="M20,0C9,0,0,9,0,20c0,11,9,20,20,20s20-9,20-20C40,9,31,0,20,0z M17.8,20c0,0.4-0.1,0.8-0.2,1.2l5.6,2.7
	c0.6-0.7,1.6-1.1,2.6-1.1c1.9,0,3.5,1.6,3.5,3.5c0,1.9-1.6,3.5-3.5,3.5c-1.9,0-3.5-1.6-3.5-3.5c0-0.2,0-0.4,0-0.5l-5.9-2.9
	c-0.6,0.4-1.3,0.7-2.1,0.7c-1.9,0-3.5-1.6-3.5-3.5c0-1.9,1.6-3.5,3.5-3.5c0.8,0,1.5,0.3,2.1,0.7l5.9-2.9c0-0.2,0-0.4,0-0.5
	c0-1.9,1.6-3.5,3.5-3.5c1.9,0,3.5,1.6,3.5,3.5c0,1.9-1.6,3.5-3.5,3.5c-1,0-1.9-0.4-2.6-1.1l-5.6,2.7C17.7,19.2,17.8,19.6,17.8,20z"
        />
    </symbol>
    <!-- ==== Feedback icon  ==== -->
    <symbol id="feedback-icon" viewBox="0 0 40 40">
        <g>
            <g>
                <path class="st0" d="M20,0C9,0,0,9,0,20c0,11,9,20,20,20s20-9,20-20C40,9,31,0,20,0z M12.5,13.7H24l-0.1-0.1
			c-0.6-0.6-0.6-1.5,0-2.1c0.6-0.6,1.5-0.6,2,0l2.7,2.7c0,0,0,0,0,0c0,0,0,0,0,0c0,0,0,0,0,0c0,0,0,0,0,0c0,0,0,0,0,0.1l0,0
			c0,0,0,0,0,0c0.1,0.1,0.2,0.3,0.3,0.4c0.1,0.2,0.1,0.4,0.1,0.6c0,0,0,0.1,0,0.1v0c0,0,0,0,0,0c0,0.1,0,0.2,0,0.3v0
			c-0.1,0.2-0.2,0.4-0.4,0.6c0,0,0,0,0,0l-2.7,2.7c-0.3,0.3-0.6,0.4-1,0.4c-0.4,0-0.7-0.2-1-0.4c-0.6-0.6-0.5-1.5,0-2.1l0.1-0.2
			H12.5c-0.8,0-1.4-0.7-1.4-1.5C11,14.3,11.7,13.7,12.5,13.7z M27.6,26.3H16l0.1,0.2c0.6,0.6,0.6,1.5,0,2.1c-0.3,0.3-0.7,0.4-1,0.4
			c-0.4,0-0.7-0.1-1-0.4l-2.7-2.7c0,0,0,0-0.1,0c-0.2-0.2-0.3-0.4-0.4-0.6c0,0,0,0,0,0c0,0,0,0,0,0c0-0.1-0.1-0.2-0.1-0.4v0
			c0-0.2,0.1-0.3,0.1-0.5c0.1-0.2,0.2-0.4,0.4-0.5c0,0,0,0,0,0l2.7-2.7c0.6-0.6,1.5-0.6,2,0c0.6,0.6,0.5,1.5,0,2.1L16,23.4h11.5
			c0.8,0,1.4,0.7,1.4,1.5C29,25.6,28.4,26.3,27.6,26.3z"/>
            </g>
        </g>
    </symbol>
    <!-- ==== App icon  ==== -->
    <symbol id="app-icon" viewBox="0 0 40 40">
        <g>
            <path class="st0" d="M20.3,0C9.5,0,0.7,8.8,0.7,19.7c0,3.4,0.9,6.8,2.6,9.8L0,39.1c-0.1,0.2,0,0.5,0.1,0.7C0.3,39.9,0.5,40,0.7,40
		c0.1,0,0.1,0,0.2,0l10.6-2.8c2.8,1.4,5.8,2.1,8.9,2.1c10.8,0,19.7-8.8,19.7-19.7C40,8.8,31.2,0,20.3,0"/>
        </g>
        <g style="fill:#ffffff;">
            <path class="st1" d="M24.9,7.8h-9.1c-1.4,0-2.5,1.1-2.5,2.5v18c0,1.4,1.1,2.5,2.5,2.5h9.1c1.4,0,2.5-1.1,2.5-2.5v-18
		C27.4,8.9,26.3,7.8,24.9,7.8 M20.4,29.9c-0.8,0-1.4-0.6-1.4-1.4c0-0.8,0.6-1.4,1.4-1.4c0.8,0,1.4,0.6,1.4,1.4
		C21.8,29.3,21.2,29.9,20.4,29.9 M25.1,25.2c0,0.4-0.4,0.8-0.8,0.8h-7.9c-0.4,0-0.8-0.3-0.8-0.8V10.2c0-0.4,0.4-0.8,0.8-0.8h7.9
		c0.4,0,0.8,0.3,0.8,0.8V25.2z"/>
        </g>
    </symbol>
    <!-- ==== Messenger icon  ==== -->
    <symbol id="msg-icon" viewBox="0 0 40 40">
        <g>
            <path class="st0" d="M20.3,0C9.5,0,0.7,8.8,0.7,19.7c0,3.4,0.9,6.8,2.6,9.8L0,39.1c-0.1,0.2,0,0.5,0.1,0.7C0.3,39.9,0.5,40,0.7,40
		c0.1,0,0.1,0,0.2,0l10.6-2.8c2.8,1.4,5.8,2.1,8.9,2.1c10.8,0,19.7-8.8,19.7-19.7C40,8.8,31.2,0,20.3,0"/>
        </g>
        <g style="fill:#ffffff;">
            <path class="st1" d="M13.6,19.7c0,1.4-1.2,2.6-2.6,2.6c-1.4,0-2.6-1.2-2.6-2.6c0-1.4,1.2-2.6,2.6-2.6C12.4,17,13.6,18.2,13.6,19.7"
            />
            <path class="st1" d="M22.9,19.7c0,1.4-1.2,2.6-2.6,2.6c-1.4,0-2.6-1.2-2.6-2.6c0-1.4,1.2-2.6,2.6-2.6C21.8,17,22.9,18.2,22.9,19.7"
            />
            <path class="st1" d="M32.3,19.7c0,1.4-1.2,2.6-2.6,2.6c-1.4,0-2.6-1.2-2.6-2.6c0-1.4,1.2-2.6,2.6-2.6C31.2,17,32.3,18.2,32.3,19.7"
            />
        </g>
    </symbol>
    <!-- ==== Yandex.Dialog icon  ==== -->
    <symbol id="yandex-icon" viewBox="0 0 40 40">
        <circle fill="#5541ea" cx="20" cy="20" r="20"/>
        <g id="Market">
            <path id="Combined-Shape" fill="#FFFFFF" d="M17.7,8.5c0.7-0.4,1.5-0.6,2.3-0.6s1.6,0.2,2.3,0.6l6.5,3.8c1.4,0.8,2.2,2.3,2.2,3.8v7.8
		c0,1.6-0.8,3-2.2,3.8l-6.5,3.8c-1.4,0.8-3.1,0.8-4.5,0l-6.5-3.8c-1.4-0.8-2.2-2.3-2.2-3.8v-7.8c0-1.6,0.8-3,2.2-3.8L17.7,8.5z
		 M28.6,17.2c0-0.1,0-0.1,0-0.1c-0.1-0.1-0.3-0.2-0.4-0.1v0l-5.4,3.1c-1.2,0.8-2,2.1-2,3.3v4.1c0,0.2,0.1,0.4,0.2,0.6
		c0.2,0.3,0.6,0.6,1,0.6c0.3,0,0.4,0,0.7-0.2l3.5-2c2.1-1.2,2.4-1.7,2.5-3.9L28.6,17.2L28.6,17.2z M16.6,19.1l-3.5-2
		C12.9,17,12.7,17,12.5,17c-0.4,0-0.8,0.2-1,0.6c-0.1,0.2-0.2,0.4-0.2,0.7v4.3c0,2.1,0.3,2.6,2.1,3.7l4.5,2.6l0,0c0,0,0.1,0,0.1,0
		c0.2,0,0.3-0.1,0.3-0.3v0l0-6.1C18.4,21,17.6,19.7,16.6,19.1z M26.1,15.6c0.2-0.1,0.3-0.2,0.4-0.4c0.2-0.3,0.2-0.8,0-1.1
		c-0.1-0.2-0.3-0.3-0.5-0.5l-3.5-2c-2.1-1.2-2.7-1.2-4.7-0.2L13.2,14v0c0,0-0.1,0.1-0.1,0.1c-0.1,0.1,0,0.3,0.1,0.4l5.4,3.1
		c1.3,0.6,2.8,0.6,3.9,0L26.1,15.6z"/>
        </g>
    </symbol>
    <!--<symbol id="yandex-icon" viewBox="0 0 40 40" xmlns="http://www.w3.org/2000/svg">
        <style type="text/css">
            .st0{clip-path:url(#SVGID_2_);fill:url(#SVGID_3_);}
        </style>
        <g>
            <defs>
                <path id="SVGID_1_" d="M9.3,30.2c-3-1.8-3.5-2.6-3.5-6.1V17c0-0.5,0.1-0.7,0.3-1.1c0.3-0.6,1-0.9,1.6-0.9c0.3,0,0.6,0.1,0.9,0.2
			l5.7,3.3c1.7,1,2.9,3.1,3.1,5.4l0,10.1c0,0.3-0.2,0.5-0.5,0.5c-0.1,0-0.2,0-0.2-0.1l0,0L9.3,30.2z M34.1,15.2
			c0,0.1,0.1,0.2,0.1,0.2l0,0l0,8.7c-0.1,3.7-0.6,4.4-4.1,6.4l-5.8,3.4c-0.4,0.2-0.7,0.3-1.1,0.3c-0.7,0-1.3-0.4-1.6-0.9
			c-0.2-0.3-0.3-0.6-0.3-0.9v-6.7c0-2,1.3-4.2,3.2-5.5l8.9-5.1v0C33.7,14.9,34,14.9,34.1,15.2 M17.8,16.1l-9-5.1
			c-0.2-0.1-0.3-0.4-0.2-0.7c0-0.1,0.1-0.1,0.2-0.2v0l7.6-4.4C19.7,4,20.6,4,24.1,6l5.8,3.3c0.4,0.2,0.6,0.4,0.8,0.8
			c0.3,0.6,0.3,1.3,0,1.9c-0.2,0.3-0.4,0.5-0.7,0.7l-5.8,3.4c-0.9,0.5-1.9,0.8-3.1,0.8C20,16.9,18.9,16.6,17.8,16.1 M20,0
			c-1.3,0-2.6,0.3-3.7,1L5.6,7.3C3.4,8.6,2,11,2,13.6v12.8c0,2.6,1.4,5,3.6,6.3L16.3,39c1.1,0.7,2.4,1,3.7,1H20c1.3,0,2.6-0.3,3.7-1
			l10.7-6.3c2.2-1.3,3.6-3.7,3.6-6.3V13.6c0-2.6-1.4-5-3.6-6.3L23.7,1C22.6,0.3,21.3,0,20,0z"/>
            </defs>
            <clipPath id="SVGID_2_">
                <use href="#SVGID_1_"  style="overflow:visible;"/>
            </clipPath>

            <linearGradient id="SVGID_3_" gradientUnits="userSpaceOnUse" x1="-87.0856" y1="140" x2="-86.9189" y2="140" gradientTransform="matrix(219.5379 -11.5055 10.3552 243.9254 17670.5703 -35130.5586)">
                <stop  offset="0" style="stop-color:#6F00F9"/>
                <stop  offset="1" style="stop-color:#69BAC0"/>
            </linearGradient>
            <polygon class="st0" points="2.1,41.9 39.7,39.9 37.9,-1.9 0.3,0.1 	"/>
        </g>
    </symbol>-->
    <!-- ==== Email icon  ==== -->
    <symbol id="email-icon" viewBox="0 0 40 40">
        <g>
            <defs>
                <rect id="SVGID_1_" width="40" height="40"/>
            </defs>
            <clipPath id="SVGID_2_">
                <use href="#SVGID_1_"  style="overflow:visible;"/>
            </clipPath>
            <path class="st0" d="M20,0c11,0,20,9,20,20s-9,20-20,20S0,31,0,20S9,0,20,0"/>
            <polygon style="fill:#FFFFFF;" class="st1" points="6.9,12.2 6.9,27.8 14.5,20 	"/>
            <polygon style="fill:#FFFFFF;" class="st1" points="33.1,12.2 33.1,27.8 25.6,20 	"/>
            <path style="fill:#FFFFFF;" class="st1" d="M7.5,11.5h25l-9.8,10.2C22,22.5,21,22.9,20,22.9c-1,0-2-0.4-2.7-1.1L7.5,11.5z"/>
            <path style="fill:#FFFFFF;" class="st1" d="M23.2,22.3c-0.8,0.9-2,1.4-3.2,1.4c-1.2,0-2.4-0.5-3.2-1.4l-1.7-1.7l-7.6,7.9h25l-7.6-7.9L23.2,22.3z"/>
        </g>
    </symbol>
    <!-- ==== ChatBot icon  ==== -->
    <symbol id="chatbot-icon" viewBox="0 0 40 40">
        <g>
            <path class="st0" d="M40,20c0,11-9,20-20,20C9,40,0,31,0,20C0,9,9,0,20,0C31,0,40,9,40,20"/>
            <path style="fill:#FFFFFF;" class="st1" d="M30.3,17.3h-0.8v-1.1c0-1.7-1.4-3.1-3.2-3.1h-5.2v-2.6c0.7-0.4,1.1-1.1,1.1-2c0-1.3-1-2.3-2.3-2.3
		c-1.3,0-2.3,1-2.3,2.3c0,0.8,0.5,1.6,1.1,2V13h-5.2c-1.7,0-3.1,1.4-3.1,3.1v1.1H9.7c-1,0-1.8,0.8-1.8,1.8v3.8c0,1,0.8,1.8,1.8,1.8
		h0.8v1.1c0,1.7,1.4,3.1,3.1,3.1h1.5v1.7c0,1,0.8,1.8,1.8,1.8h6.1c1,0,1.8-0.8,1.8-1.8v-1.7h1.5c1.7,0,3.2-1.4,3.2-3.1v-1.1h0.8
		c1,0,1.8-0.8,1.8-1.8v-3.8C32,18.1,31.2,17.3,30.3,17.3 M13.1,18.5c0-1.2,0.9-2.1,2.1-2.1c1.2,0,2.1,0.9,2.1,2.1
		c0,1.2-0.9,2.1-2.1,2.1C14,20.6,13.1,19.6,13.1,18.5 M22.8,26.1h-5.7c-0.9,0-1.7-0.8-1.7-1.7c0-0.9,0.8-1.7,1.7-1.7h5.7
		c0.9,0,1.7,0.8,1.7,1.7C24.6,25.3,23.8,26.1,22.8,26.1 M24.8,20.6c-1.2,0-2.1-0.9-2.1-2.1c0-1.2,0.9-2.1,2.1-2.1
		c1.2,0,2.1,0.9,2.1,2.1C26.9,19.6,26,20.6,24.8,20.6"/>
        </g>
    </symbol>
    <!-- ==== Chat icon ==== -->
    <symbol id="chat-icon" viewBox="0 0 30.001 30.001">
        <g>
            <g>
                <path d="M4.292,28.572c0-2.021,0-3.791,0-5.503c-0.122-0.098-0.163-0.154-0.216-0.167c-3.069-0.754-4.074-2.031-4.074-5.188
			c0-3.875-0.006-7.75,0.003-11.625C0.011,3.183,1.726,1.45,4.65,1.442c6.92-0.016,13.838-0.019,20.759-0.001
			c2.877,0.008,4.575,1.743,4.583,4.614c0.009,3.506,0.013,7.012,0.002,10.519c-0.013,3.964-2.243,6.248-6.22,6.296
			c-3.598,0.043-7.195,0.028-10.794-0.002c-0.781-0.007-1.402,0.199-2.021,0.677C8.823,25.197,6.649,26.802,4.292,28.572z
			 M7.197,22.793c1.145-0.852,2.119-1.632,3.154-2.321c0.403-0.268,0.942-0.459,1.421-0.464c4.058-0.035,8.116-0.013,12.174-0.022
			c2.073-0.006,3.188-1.133,3.189-3.196c0.004-3.505,0.001-7.011-0.001-10.517c-0.001-1.524-0.455-1.989-1.957-1.99
			C18.353,4.277,11.527,4.276,4.701,4.275c-1.269,0-1.83,0.514-1.834,1.764c-0.014,4.059-0.016,8.117-0.001,12.176
			c0.005,1.299,0.497,1.754,1.811,1.771c0.814,0.011,1.63,0.002,2.521,0.002C7.197,20.971,7.197,21.786,7.197,22.793z"/>
                <path d="M14.289,10.002c-2.334,0-4.669,0.005-7.003-0.003C6.62,9.997,5.998,9.763,5.867,9.073
			C5.781,8.619,5.875,8.012,6.133,7.648c0.216-0.303,0.787-0.49,1.203-0.494c4.577-0.036,9.152-0.032,13.729-0.024
			c1.14,0.001,1.776,0.533,1.791,1.418c0.017,0.91-0.652,1.45-1.842,1.454c-2.242,0.009-4.484,0.003-6.728,0.003
			C14.289,10.004,14.289,10.003,14.289,10.002z"/>
                <path d="M12.926,15.721c-1.812,0.001-3.623,0.006-5.435-0.001c-1.102-0.005-1.764-0.553-1.764-1.437
			C5.726,13.394,6.36,12.869,7.5,12.865c3.562-0.009,7.122-0.011,10.684-0.002c1.234,0.003,1.815,0.502,1.787,1.472
			c-0.025,0.902-0.637,1.381-1.794,1.384C16.426,15.724,14.676,15.721,12.926,15.721z"/>
            </g>
        </g>
    </symbol>
    <!-- ==== VK icon ==== -->
    <symbol id="vk-icon" viewBox="0 0 511.962 511.962">
        <g>
            <path d="M507.399,370.471c-1.376-2.304-9.888-20.8-50.848-58.816c-42.88-39.808-37.12-33.344,14.528-102.176
			c31.456-41.92,44.032-67.52,40.096-78.464c-3.744-10.432-26.88-7.68-26.88-7.68l-76.928,0.448c0,0-5.696-0.768-9.952,1.76
			c-4.128,2.496-6.784,8.256-6.784,8.256s-12.192,32.448-28.448,60.032c-34.272,58.208-48,61.28-53.6,57.664
			c-13.024-8.416-9.76-33.856-9.76-51.904c0-56.416,8.544-79.936-16.672-86.016c-8.384-2.016-14.528-3.36-35.936-3.584
			c-27.456-0.288-50.72,0.096-63.872,6.528c-8.768,4.288-15.52,13.856-11.392,14.4c5.088,0.672,16.608,3.104,22.72,11.424
			c7.904,10.72,7.616,34.848,7.616,34.848s4.544,66.4-10.592,74.656c-10.4,5.664-24.64-5.888-55.2-58.72
			c-15.648-27.04-27.488-56.96-27.488-56.96s-2.272-5.568-6.336-8.544c-4.928-3.616-11.84-4.768-11.84-4.768l-73.152,0.448
			c0,0-10.976,0.32-15.008,5.088c-3.584,4.256-0.288,13.024-0.288,13.024s57.28,133.984,122.112,201.536
			c59.488,61.92,127.008,57.856,127.008,57.856h30.592c0,0,9.248-1.024,13.952-6.112c4.352-4.672,4.192-13.44,4.192-13.44
			s-0.608-41.056,18.464-47.104c18.784-5.952,42.912,39.68,68.48,57.248c19.328,13.28,34.016,10.368,34.016,10.368l68.384-0.96
			C488.583,400.807,524.359,398.599,507.399,370.471z"/>
        </g>
    </symbol>
    <!-- ==== Facebook icon ==== -->
    <symbol id="facebook-icon" viewBox="0 0 155.139 155.139">
        <g>
            <path id="f_1_" d="M89.584,155.139V84.378h23.742l3.562-27.585H89.584V39.184
		c0-7.984,2.208-13.425,13.67-13.425l14.595-0.006V1.08C115.325,0.752,106.661,0,96.577,0C75.52,0,61.104,12.853,61.104,36.452
		v20.341H37.29v27.585h23.814v70.761H89.584z"/>
        </g>
    </symbol>
    <!-- ==== Twitter icon ==== -->
    <symbol id="twitter-icon" viewBox="0 0 512 512">
        <g>
            <path d="M512,97.248c-19.04,8.352-39.328,13.888-60.48,16.576c21.76-12.992,38.368-33.408,46.176-58.016
			c-20.288,12.096-42.688,20.64-66.56,25.408C411.872,60.704,384.416,48,354.464,48c-58.112,0-104.896,47.168-104.896,104.992
			c0,8.32,0.704,16.32,2.432,23.936c-87.264-4.256-164.48-46.08-216.352-109.792c-9.056,15.712-14.368,33.696-14.368,53.056
			c0,36.352,18.72,68.576,46.624,87.232c-16.864-0.32-33.408-5.216-47.424-12.928c0,0.32,0,0.736,0,1.152
			c0,51.008,36.384,93.376,84.096,103.136c-8.544,2.336-17.856,3.456-27.52,3.456c-6.72,0-13.504-0.384-19.872-1.792
			c13.6,41.568,52.192,72.128,98.08,73.12c-35.712,27.936-81.056,44.768-130.144,44.768c-8.608,0-16.864-0.384-25.12-1.44
			C46.496,446.88,101.6,464,161.024,464c193.152,0,298.752-160,298.752-298.688c0-4.64-0.16-9.12-0.384-13.568
			C480.224,136.96,497.728,118.496,512,97.248z"/>
        </g>
    </symbol>
    <!-- ==== Skype icon ==== -->
    <symbol id="skype-icon" viewBox="0 0 512 512">
        <g>
            <path d="M497.28,310.336c3.712-16.672,5.632-33.952,5.632-51.68c0-132.96-109.312-240.768-244.192-240.768
			c-14.208,0-28.16,1.216-41.76,3.52C195.136,7.872,169.312,0,141.632,0C63.392,0,0,62.496,0,139.648
			c0,25.76,7.104,49.856,19.456,70.624c-3.232,15.616-4.96,31.808-4.96,48.384c0,132.992,109.344,240.8,244.192,240.8
			c15.296,0,30.24-1.408,44.736-4.032C323.392,505.984,346.176,512,370.4,512c78.208,0,141.6-62.528,141.6-139.616
			C512,350.08,506.688,329.056,497.28,310.336z M383.968,373.728c-11.296,15.776-27.968,28.256-49.632,37.088
			c-21.408,8.8-47.04,13.28-76.288,13.28c-35.072,0-64.48-6.08-87.456-18.112c-16.416-8.736-29.92-20.544-40.192-35.2
			c-10.4-14.72-15.616-29.344-15.616-43.488c0-8.8,3.424-16.448,10.176-22.688c6.688-6.24,15.264-9.344,25.504-9.344
			c8.384,0,15.616,2.464,21.504,7.36c5.6,4.704,10.432,11.68,14.304,20.608c4.32,9.792,9.024,18.048,13.984,24.48
			c4.832,6.304,11.712,11.552,20.512,15.68c8.864,4.096,20.8,6.24,35.456,6.24c20.192,0,36.768-4.256,49.184-12.64
			c12.192-8.16,18.08-18.016,18.08-30.048c0-9.472-3.104-16.96-9.408-22.816c-6.656-6.144-15.424-10.912-26.048-14.208
			c-11.104-3.392-26.176-7.104-44.8-10.944c-25.376-5.344-46.912-11.68-64-18.88c-17.504-7.36-31.648-17.536-41.952-30.272
			c-10.496-12.96-15.808-29.184-15.808-48.256c0-18.176,5.568-34.56,16.576-48.704c10.912-14.048,26.848-25.024,47.424-32.48
			c20.256-7.392,44.352-11.136,71.648-11.136c21.792,0,40.96,2.496,56.992,7.424c16.096,4.928,29.664,11.584,40.32,19.808
			c10.752,8.32,18.752,17.12,23.744,26.336c5.056,9.28,7.648,18.528,7.648,27.456c0,8.608-3.36,16.448-10.016,23.232
			c-6.72,6.88-15.168,10.336-25.088,10.336c-9.024,0-16.128-2.208-21.024-6.464c-4.576-4-9.344-10.24-14.592-19.136
			c-6.08-11.392-13.472-20.384-21.92-26.752c-8.224-6.176-21.92-9.248-40.8-9.248c-17.472,0-31.744,3.456-42.304,10.304
			c-10.176,6.56-15.136,14.112-15.136,23.072c0,5.472,1.6,10.048,4.896,13.984c3.456,4.224,8.352,7.84,14.56,10.912
			c6.4,3.168,13.024,5.728,19.648,7.52c6.784,1.856,18.144,4.64,33.792,8.192c19.776,4.16,37.92,8.864,53.984,13.952
			c16.288,5.088,30.304,11.392,41.824,18.784c11.68,7.52,20.928,17.12,27.52,28.64c6.592,11.616,9.92,25.856,9.92,42.432
			C401.056,339.84,395.296,357.92,383.968,373.728z"/>
        </g>
    </symbol>
    <!-- ==== Phone icon ==== -->
    <symbol id="phone-icon" viewBox="-21 -21 682.66669 682.66669">
        <path d="m380.160156 388.492188c-11.417968 11.699218-21.367187 24.296874-53.171875 5.644531-30.824219-18.078125-82.628906-66.589844-90.25-106.667969 0-20.339844 17.1875-26.851562 22.566407-35.160156-3.019532-6.742188-12.683594-24.378906-30.8125-58.746094-5.59375 5.40625-21.78125 21.945312-37.835938 38.019531-5.273438 5.011719-2.730469 20.023438-1.167969 27.152344 16.027344 73.09375 99.890625 156.535156 164.457031 183.328125 12.417969 5.15625 46.28125 16.5 54.679688 7.667969 19.714844-19.582031 31.921875-31.179688 38.46875-38.027344-26.253906-15.527344-57.019531-33.710937-57.019531-33.710937zm0 0"/><path d="m546.273438 93.726562c-60.4375-60.441406-140.800782-93.726562-226.273438-93.726562s-165.835938 33.285156-226.273438 93.726562c-60.441406 60.4375-93.726562 140.800782-93.726562 226.273438s33.285156 165.835938 93.726562 226.273438c60.4375 60.441406 140.800782 93.726562 226.273438 93.726562s165.835938-33.285156 226.273438-93.726562c60.441406-60.4375 93.726562-140.800782 93.726562-226.273438s-33.285156-165.835938-93.726562-226.273438zm-88.914063 360.644532c-25.800781 25.253906-31.738281 35.949218-60.117187 35.949218-128.140626.011719-300.414063-222.996093-232.820313-285.539062 28.742187-28.773438 38.058594-38.847656 44.90625-44.40625 15.476563-12.558594 36.929687-9.492188 48.96875 9.4375 1.800781 3.113281-1.660156-3.09375 19.160156 36.050781 20.136719 37.863281 32.621094 51.777344-1.480469 82.777344 10.671876 25.078125 51.890626 64.921875 75.125 75.933594 8.875-9.074219 28.511719-36.199219 61.054688-17.105469 58.566406 34.359375 70.859375 37.839844 74.738281 57.226562 3.027344 18.371094-4.285156 24.96875-29.535156 49.675782zm0 0"/>
    </symbol>
</svg>